<mxfile host="app.diagrams.net" modified="2023-12-20T03:08:12.968Z" agent="Mozilla/5.0 (Windows NT 10.0; Win64; x64) AppleWebKit/537.36 (KHTML, like Gecko) Chrome/120.0.0.0 Safari/537.36" etag="H46TE_8cHq4833icnpL5" version="22.1.11" type="github">
  <diagram name="ページ1" id="X-mkaiCdUi-jA9PYHvWx">
    <mxGraphModel dx="928" dy="550" grid="1" gridSize="10" guides="1" tooltips="1" connect="1" arrows="1" fold="1" page="1" pageScale="1" pageWidth="980" pageHeight="690" math="0" shadow="0">
      <root>
        <mxCell id="0" />
        <mxCell id="1" parent="0" />
        <mxCell id="CvRN-rh_fGH2hhCfYfcq-12" style="edgeStyle=orthogonalEdgeStyle;rounded=0;orthogonalLoop=1;jettySize=auto;html=1;exitX=1;exitY=0;exitDx=0;exitDy=0;entryX=0;entryY=0;entryDx=0;entryDy=0;curved=1;" parent="1" source="CvRN-rh_fGH2hhCfYfcq-2" target="CvRN-rh_fGH2hhCfYfcq-4" edge="1">
          <mxGeometry relative="1" as="geometry">
            <Array as="points">
              <mxPoint x="191" y="300" />
              <mxPoint x="324" y="300" />
            </Array>
          </mxGeometry>
        </mxCell>
        <mxCell id="CvRN-rh_fGH2hhCfYfcq-13" style="edgeStyle=orthogonalEdgeStyle;rounded=0;orthogonalLoop=1;jettySize=auto;html=1;exitX=0;exitY=1;exitDx=0;exitDy=0;entryX=1;entryY=1;entryDx=0;entryDy=0;curved=1;" parent="1" source="CvRN-rh_fGH2hhCfYfcq-4" target="CvRN-rh_fGH2hhCfYfcq-2" edge="1">
          <mxGeometry relative="1" as="geometry">
            <Array as="points">
              <mxPoint x="324" y="410" />
              <mxPoint x="191" y="410" />
            </Array>
          </mxGeometry>
        </mxCell>
        <mxCell id="CvRN-rh_fGH2hhCfYfcq-2" value="&lt;font style=&quot;font-size: 30px;&quot;&gt;S&lt;/font&gt;" style="ellipse;whiteSpace=wrap;html=1;aspect=fixed;" parent="1" vertex="1">
          <mxGeometry x="110" y="305" width="95" height="95" as="geometry" />
        </mxCell>
        <mxCell id="CvRN-rh_fGH2hhCfYfcq-14" style="edgeStyle=orthogonalEdgeStyle;rounded=0;orthogonalLoop=1;jettySize=auto;html=1;exitX=1;exitY=0;exitDx=0;exitDy=0;entryX=0;entryY=0;entryDx=0;entryDy=0;curved=1;" parent="1" source="CvRN-rh_fGH2hhCfYfcq-4" target="CvRN-rh_fGH2hhCfYfcq-5" edge="1">
          <mxGeometry relative="1" as="geometry">
            <Array as="points">
              <mxPoint x="391" y="300" />
              <mxPoint x="524" y="300" />
            </Array>
          </mxGeometry>
        </mxCell>
        <mxCell id="CvRN-rh_fGH2hhCfYfcq-15" style="edgeStyle=orthogonalEdgeStyle;rounded=0;orthogonalLoop=1;jettySize=auto;html=1;exitX=0;exitY=1;exitDx=0;exitDy=0;entryX=1;entryY=1;entryDx=0;entryDy=0;curved=1;" parent="1" source="CvRN-rh_fGH2hhCfYfcq-5" target="CvRN-rh_fGH2hhCfYfcq-4" edge="1">
          <mxGeometry relative="1" as="geometry">
            <Array as="points">
              <mxPoint x="524" y="410" />
              <mxPoint x="391" y="410" />
            </Array>
          </mxGeometry>
        </mxCell>
        <mxCell id="CvRN-rh_fGH2hhCfYfcq-4" value="&lt;span style=&quot;font-size: 30px;&quot;&gt;E&lt;/span&gt;" style="ellipse;whiteSpace=wrap;html=1;aspect=fixed;" parent="1" vertex="1">
          <mxGeometry x="310" y="305" width="95" height="95" as="geometry" />
        </mxCell>
        <mxCell id="y8OqTvJ160QRCtGBEvZC-6" style="edgeStyle=orthogonalEdgeStyle;rounded=0;orthogonalLoop=1;jettySize=auto;html=1;exitX=0.5;exitY=1;exitDx=0;exitDy=0;entryX=0.5;entryY=1;entryDx=0;entryDy=0;curved=1;" edge="1" parent="1" source="CvRN-rh_fGH2hhCfYfcq-5" target="CvRN-rh_fGH2hhCfYfcq-2">
          <mxGeometry relative="1" as="geometry">
            <Array as="points">
              <mxPoint x="558" y="440" />
              <mxPoint x="158" y="440" />
            </Array>
          </mxGeometry>
        </mxCell>
        <mxCell id="CvRN-rh_fGH2hhCfYfcq-5" value="&lt;span style=&quot;font-size: 30px;&quot;&gt;I&lt;/span&gt;" style="ellipse;whiteSpace=wrap;html=1;aspect=fixed;" parent="1" vertex="1">
          <mxGeometry x="510" y="305" width="95" height="95" as="geometry" />
        </mxCell>
        <mxCell id="CvRN-rh_fGH2hhCfYfcq-6" value="&lt;span style=&quot;font-size: 30px;&quot;&gt;R&lt;/span&gt;" style="ellipse;whiteSpace=wrap;html=1;aspect=fixed;" parent="1" vertex="1">
          <mxGeometry x="710" y="305" width="95" height="95" as="geometry" />
        </mxCell>
        <mxCell id="y8OqTvJ160QRCtGBEvZC-3" value="" style="shape=image;verticalLabelPosition=bottom;labelBackgroundColor=default;verticalAlign=top;aspect=fixed;imageAspect=0;image=data:image/png,iVBORw0KGgoAAAANSUhEUgAAAFgAAABOCAYAAACkGtGyAAAKPUlEQVR4Ae2ceVBUyR3H3z8etZYTjdeUglG0iLdUgaIoKFGMZYFBKUFRIh6YVVTUrNcqokQRFTkUPDDOYjxWU8UWniiHSoSNCt4Yg8qogKKIBx6I4/FN/dp94zjLMIevhwn1uooamHnTr/vTv/ft7m93I0BOXAkIXHOXM4cMmHMQyIBlwJwJcM5ejmAZMGcCnLOXI7ihAdZoNFCr1UhNTcXy5cvh5+cHR0dHNG3aFIIgwM7ODt7e3oiMjMSZM2dQVVWFjx8/csPw4sULHDp0CElJSbh+/brk97FKBL9+/Rp5eXlYuHAhevTogcaNGzOYnTp1wtChQzFixAj24+bmhjZt2rDPCDb9tG3bFlOnTsXJkydBMKRIHz58wK1bt7Bu3ToMHz4cCxYswMWLF1FTUyNF9l/kwQ0wVeL27dtYv349nJyc0L17d4SEhGD//v24efMmXr16BbpGP9F7jx8/RlZWFubPnw9qBBE25bF27VoG5927d/pfrfNvyvf+/fvYu3cvfHx84O7ujo0bN+LOnTu1lqPOzMz4UHLAb968QXZ2NgIDAzFkyBBERUXh2rVrqK6uNqNYny+lqD1+/DjGjx+PVq1aMdgkJwMHDmSNd/78eVRUVICkR0zv37/H8+fPcePGDSZF1FB9+vRBx44dERQUhPT0dPY5T+kRyyIZ4KdPn7Lo8PX1xcyZM5l+UpRKlSgC6bGOj4/HgAEDtJotRrehV3t7ewaVNP/hw4cg+NZMkgG+d+8eTp06haKioi+iiUdlCBI97keOHGE6OnnyZIwcOZJ1jnPmzEFCQgKLUnr86YmqzyQZ4PqshC3fWwbMuXVkwDJgzgQ4Zy9HsAyYMwHO2csRLAPmTIBz9nIE/78CpqnzmjVr0KFDB61ZY2g6a8r7ZPqMGzcO27ZtYyaSuWYPZ44Gs+cWwWT9nT17Flu2bEF0dDTCw8MxbNgwNG/eXAu8W7dumDVrFnPI6BpDP4sWLWLGkfjddu3aYd68eczMqc2RM1jbeviAG2D9upBzdezYMbi6ujLABImszMrKSv1La/377du3zBj38PBAo0aNWB7kI58+fZq791FrgUx802qAya7cunUrunbtyuD069ePASNwpiaK1rS0NDg7O2ufggkTJqCwsNDULKx+ndUAk1VIj7ro6dKyUH5+vtkVLisrw9y5c9GiRQsGmRps586dkq12mF0gI1+wGuCrV68yO1Hs0Eh7yeI0N5HHTCsRZJ6LeZEek31pi8kqgPX1t3Pnzti+fbtFUUdSs3nzZjg4OGgBkx9MPrQtJqsAlkJ/RXgvX75knSOtVIgRPHv2bJSUlIiX2NSrVQDr6++YMWPYKq4lJEhWpk+fjmbNmjHANM6mFQwad9tisgpgff2lToo6K3MTjSJoAZQWPMXopaFabm4u15Vhc8upez13wFLqLzUKdWgtW7ZkgEmHk5OT2eYU3UrZ0u/cAevr76BBg3DixAmYO9Wl5fu4uDhQB0nRS1NnGk08evTIlnj+qizcAUuhv0+ePEFsbKx25EBTbIpcW9VdXcrcAevqb5MmTdj2qQcPHuiWweDvFOUXLlxAcHAwkwWaXs+YMYNNUHQ3mhjMwAY+4AqYOqWDBw/CxcWFPdY061KpVGzblKG6EziK+qNHj2LatGlo3749unTpgqVLl+LKlSswZ2pt6B7WfJ8rYH39FXt+U1+pQVasWMHA1vcGEksbhStgmr6GhYVpfYNJkyYxi9FYYWnk8ezZM2RmZoLMHKVSCeocU1JS2MZAY9+3pc+5AtbVX4VCgYiICLN7/fLycixbtgykv7TpjzYVXrp0yei4V1OajxM7IjBlgi/+4OWOvvZK2I1eAlVBhVX5cwNsif4aqjntkvT399f6wKZYlNXqPBzdvRmRCybBubuS9QEe325Azh3p9wAbKje9zw2wvv4OHjwYGRkZFu1uJP9B10EjyYiJiQEN34wmdTpC/cjkd8TEiDT857nRb0h6ATfA+vobEBDA9glbUnrxadA12seOHcukwlh+lbkJCBpqB0HhgyWqAlhXIDhGsK7+0vh38eLFID21NNGmaXG5iUYh4hNR94ywGoX7p8O7lwBh+FzE55XCuruDOQEWI86c8a8x8BYB1hQh9S9/gpMgwGVaFDJuvTZ2G8k/5yIR+vprqf8g1pYmH/v27UPv3r1ZZ0UR7OnpyRY869yxXpqFtf5uaF1P+kvl5wJYX3+/xv+lQtJ5CzrrobvHwpRVDF39/auqAJYLlNjU5r9yAUyHXmhRU5yxWer/itW5fPkyRo0apc2PnDTagEJn6AwnHf11n4kNp+/CugO0TyWTHDDpLx3sE/X3a9bfqIg0RNu0aZPWSaNGo8OLBL3upMahUD84CwKc/rwK6f/9sjE0z4qQ/fcITPZ0gPI3Cih7B2DlgQKUSXykQ3LApL8UXeL+B1p9oA6q7t6+dlTUWOQd0wFF8Wno378/Dh8+bNz00eqvPcYsOYBLj8V7VEN9Ig6hM+fh+10/4+7TV1BnbELIwN9B4TELMTnSRrrkgEl/adVB3Ldgqf6SH3Hu3Dl2aFA8GdqzZ0/s2rXLpNXoynPJCBpOK8/DMDc+F6U0PqspR55qNSJiU5BT/EtEl2YhinWEAgSvMCT8XCbpUE5ywKS/dJJSjDhL9j+I26ToIKMIt2/fvtizZ49JcAEd/e0fgqjMYryuLkFW0iqsTfonCh7oqHGNGukbguHl6YPvVHm4K81pXfFxkXYUQWB2796NXr16McC0tE57GMgZMyXRcIy0NTQ0lJk71Eg0SaHDjXQw3HST/bP+OgaG48fMI1D9LQKxKTkolhigsXpZHMGkj2TCkIFOuyJXr16NiRMnMoNcjF5y0EaPHo2VK1ca3DlJ36UhGJ0OpSgVT90TWDpPTGebaZhmVirN/mX8K0DRphV+P2wyon88j/IX1p7HfcU4mKKSDmbTvx8QgX7tq7gHODExkf1rAUtPv1fl70CwF+lvT3j4zkBo6DgM7aqEQqGEi/8i/COnGE91VMKsxjPzYosj2Mz7WPFy0t+QT/6DqL90d00VCn+KhLezEoLCBcExGSiyglw0QMBqHF/qB9dvBDgGrkLadd3xbwmyovzh1lqAvd8SHLis46190KD67XvUSKwiDQ9waTaiAwahtaA//qUwrkR+chC8HAQo9FY3SrKjkLg7Bf+S2JBvcIBJf6eM6PLl+FcrUGqkh/rBVRDw5eoGRXYcflCdRLGtz+S0damXX3T0t1b/4bNE+HyXiIKHnwqpuZGK7xNVUP1b2kkG5d7AIviT/g74RoDTlCik3/y1/1t14QeE/dER/QJX4fD1Kmgq8rFjVTQS9+ZJ7kM0QMDlyEn4Ft6e/gg/UIDyz/9lRud50qD88hHETvWC42+VULpMxJqfLqFcYmkQb9jAIlislu28yoA5t4UMWAbMmQDn7OUIlgFzJsA5ezmCZcCcCXDOXo5gGTBnApyzlyNYBsyZAOfs5QiWAXMmwDl7OYI5A/4f1baGuq6gVG4AAAAASUVORK5CYII=;" vertex="1" parent="1">
          <mxGeometry x="134.08999999999997" y="331.75" width="46.82" height="41.5" as="geometry" />
        </mxCell>
        <mxCell id="y8OqTvJ160QRCtGBEvZC-4" value="" style="shape=image;verticalLabelPosition=bottom;labelBackgroundColor=default;verticalAlign=top;aspect=fixed;imageAspect=0;image=data:image/png,iVBORw0KGgoAAAANSUhEUgAAAG4AAABKCAYAAABaZmHbAAALYklEQVR4Ae1cZ1AVWRbuP46Wlq4UjglzwkAZ1pyWYlGXMa2imEvXZdAVxbCzBkpxlC3FVXRMGDArY7lumVAxjaFGsdawPsOIGRV1RcGIImL4tr4L9/nsfSKvX7dOY98qqt+D2/eePl+f+517zrkosJopNaCYUmpLaFjAmfQlsICzgDOpBkwqtmVxFnAm1YBJxbYszgLOpBowqdiWxVnAmUsDb968wZUrVzB//ny0b98eJUuWRJkyZdCnTx9s2bIFaWlpePv2bb4f6smTJ1i1ahU2bdqEx48f5/s+rR2/OIsjYOfPn0dYWBhKly4NRVGc/vj4+GDRokVITU3NE8Ds7GwkJiYiJCQEU6dORXJyMjiH0e2LAo5WFB0djTZt2mDIkCHYv38/0tPT8erVKwHOo0ePcODAAQwdOhTlypUTgNapUweTJ0/G8ePHkZGRIfqx/+3bt4V19erVC507d8bmzZvF340GTI7/RQDHJe/UqVPCyiZNmiQsjsr/UGN/LqMErEqVKk4tkpZat25dzJo1Czdv3vwkVuYo7xcB3J07dwT/7N69G8+ePXN8/jw/E8Br165hwYIFaNeuneDBihUrIigoCKtXr8atW7c+OWBS4C8COPmwBelqAWdSNC3gLOBMqgGTim1ZnAWcSTVgUrEti7OAM6kGTCq2ZXEWcMDDhw8xbdo0eHl5fTBM9KGgrrPfM9zUs2dPLF68GFevXhUxRa16vnTpEvr3748iRYoI2ZgJaNmyJTp06PDeDzMF9evXR/Hixe2xyri4ODx//lzr1Ibcp6vFZWVl4dixYyKqPmPGDERERIhQkVQCwalduzZCQ0MRFRUF9vnQz7hx4+Dr62tXICP5o0ePxoULFzSFmZ4+fQqGvGbPni3mHDt2LJo1a2YHUr44zAowcyDlW79+PW7cuKFpTkMQyx1UV+DUgjLWl5CQgObNm9vf8pkzZ4qIvLqvs+8vX77E9u3bBYBfffWVGIMWcujQITCd4k5jkHnDhg3CuiRozMWdO3cuzzSOO3Pqea+hwGVmZmLJkiWoUaOGUHrTpk2xbds2EJD8Nua2eE+TJk3EGFSyVHB+x3DW78WLF1i2bBm8vb3FuOXLl8fcuXPFcu+s/6/td4YCxyTk+PHjUapUKaEc5q2Y13K1Mbo/cuRIEZ0ncHwRli9fDi5/Whtl43IsZWvUqJHIfLvyUmmdW4/7DAWOy06XLl3sljJs2DCRu3JVcKZiyE2VKlWyjzVq1CiRzHR1LNn/7Nmz6Nixo308fiY/m6UZBpya36pWrSqWTS1WwiV34cKFqFatml3RAwcOxMWLFzXpmbLt2rXLzr20Yma9WXZglmYYcHrwm1QiSwaYaWYSUzoSw4cPR0pKiuzi0pWysZ6kevXqYjxuX+bNmweWLpilGQacmt+6desmyge0KIYAsRinWLFidkW740iYnd+oQ8OAU/Mb90YssHG10avcs2eP2CxLa+OW4MiRI5r3VuS3Tp062a2XTtOJEydcFe2z9jcEOD35jR7lmDFj4OHhIRRNnlu6dClYx6ilFQR+43MbApya31q1aiWiFnlVVjkDgY4MuUc6JQyBsbzu3r17zrrn63cFgd8MA04Pfnvw4AHmzJljdyAYKqOlMR7qTisI/GYYcI78VrhwYTAuyCUvP41WyRrIwYMHi+WRMUo6JuQgd8NcnL8g8JshwNGZiI+Pt4eoGOVYsWJFnvWMBISWsHPnTgQHB4PhJ7rqEyZMwOnTp10KkeX1cpDfOAeDy9LRGTFihOZtRV5zGf033TlOzW9SQfm9EmhmFc6cOQPGE/VsBYXfqBPdgeOSyPQLT78QLObAkpKSPqp/WgM3wPv27UPfvn1RtmxZtG7dWlQg379//6P356cDrZrLtqenp5CNlrdjxw5dluD8zK9nH92Bc+S3EiVKiPp7V71AKnjixIkCPHIkgbTZbJr3bVJh7vJb+oVDiJsZhn49v8Hv/RujjpcHfL+Nwr6rnz7JqitwWvhNKlV9ZcK0d+/ekHk4d1M57vNbNtLP7sfmZT8gYkgAGlYpCkWpiMDwjbClqaU3/ruuwJGTHPNvPM60d+9evH792uUnYUaA24HKlSuLZY1LJ+OV3CZoaXry25MTsfhTewa8/TFqXiJuu/54Wh7hvXt0BU7Nbzw7xuVJS3OWQO3evbtYMrWMpx+/ZePi5iHo2lCB0iwEUT9dw6dfKHV2Thz5jdzEROXdu3e16FncwxqRFi1a2F13OiuMW7oageFgan5jnvDkyZMaZEvBT9OD0KqUAu9+kdh2XlvoTcPE792im8XpyW9SQr2Ac5/fpEQA7idibn8/eCkl0GX8KpzUHn1zGNT1j7oBp+Y3rfFJ+QjclLPCiqVycg/o5+eHgwcPusyZan5jXo+JWS2H7DPPbkBwR5/Pym/UkW7AqfnNnfwbBaNSWSLnWKOpNevNdJJjzQr3b6wecz2E5sBvvx2MqD2XPwu/6QqcI7/RQrTm36TFMdTlWBPCzAALY7Wkc4zgt4o9wrHx9GfYB+QqSBeLk/zG8juC5k59CeViqQLPXcvSAo7Zo0cPTR4lZdu6dSsaN25sX3I1xyfTjyN2QDtUUxQE/DUG//6vfM1yrpm3bNg6ZyS6NvOCR1FPVPtdKBbtTcJD90pA358k95suwEl+q1mzplAOS7tZCKvF+6Oi6TmSIyW3cWlj4FpL6Zya35jbi42N1VTa947ffBEa/TNuZOVqMesujsd9j+GjxuOHHWeQmpEKW9x3CKrjAe+e4dh4Rn/L1AU4vfiN3h/rLumqy4hJvXr1xH840FIdRrV+iN+0vATJ20MR2ESBUrs/IuOTIDYCGRcRHz0Z02I2w3YvB0kC/Odv6MAo8O7/d2xL0n/LoAtwan7TUj9JRarLzelRrl27VpN1yPVFzW+BgYGallzg3f6txB/Dseo/aUC6DRuiIjF7zQFcdqzNTbdh3Zg/oI1fb0TFn0Par3GppMLXrVsHHpbgG0ZXm/8fK7+lbvTs6IiQd3iChmNw806v9PDhwxo8PwkZxNK6Zs0a0Grlsjto0CDw5I7LzYHf/MOisWv3vzArYhoWb7EhTS6ZLg+q/QaXLI78w+DvypUrxYkXHqli2sbRZWdGoGvXrpgyZcoHT+LwhM706dPFqZ0GDRrYT8wQsLZt24rDGK7uschlR48eRUxMjJiX8/OIlnwZJHBM0vbr1w+RkZGiH0vZ+Uwf4+N3/KbA82tPNOj+HWL2XcTDrM8QqHR1H0cr4t6qQoUK9jdYKkTrVZ6B44aY/xyNR7W0tOvXr2PAgAEoVKiQkI0y8iVQn3/z9/dHrVq17C8LHSpm6D/GockJExDYrCiUCk0REDIMYYMC0NzLA0W/rgffb2djh+02nhv/v9fsqnHJ4ux3fXEfnPAbdZCRgsQlwfDzLgqlahf87ceTuGsAnzlTtwWcM62of/foBGIH5uzf/MPmITHFYXnMsGHd4ADUURT4/iUaP193WDGyM5H9MguvDbBECzg1SE6+Z579Z258UrV/E32TER8aiMaKgqbvZcMzcW7991jx40YYEWCxgHMClPpXyQnhOfzmuH+TnR4dz7VGVTaclhgRi7UbT0P/7beOQWb5HAXvSn7rJfJvTuOTmb9gQ3An+CgNMXjaLlzOyNFA2uGFiFq+Bjsv6L/55gyWxX3sTSO/DWqPasy/jV2Fk6nqG7KRsnsGgprXgn/YMsF/mZcS8I+J87E0IQnu1V2r53r33QLunS6cf8r8BZvCO8M/IARzD1zLCXP9X89MJB9ci4juPqj8G0/4tB+FFQcvGxJcllNbwElNmOxqAWcywKS4FnBSEya7WsCZDDAprgWc1ITJrhZwJgNMimsBJzVhsqsFnMkAk+JawElNmOxqAWcywKS4/wOUHezBIhur8AAAAABJRU5ErkJggg==;" vertex="1" parent="1">
          <mxGeometry x="330" y="331.75" width="59.46" height="40" as="geometry" />
        </mxCell>
        <mxCell id="y8OqTvJ160QRCtGBEvZC-5" value="" style="shape=image;verticalLabelPosition=bottom;labelBackgroundColor=default;verticalAlign=top;aspect=fixed;imageAspect=0;image=data:image/png,iVBORw0KGgoAAAANSUhEUgAAAG4AAABFCAYAAACrMNMOAAAKYklEQVR4Ae1beUwUWR6ufxyNRleCo0Y88UAi8VgV7yUs4jJeo3iL0WUZxhVFdGc9iMExbBBX0fHCAw88GMO6WQ9UvGZHMx5ZkbUVR0TjoLK6ouKJtojHt/kKX9n29sSuRzVOmaqkU92deu/96ve93/t+x3sKrMuUGlBMKbUlNCzgTDoJLOAs4EyqAZOKbVmcBZxJNWBSsS2Ls4AzqQZMKrZlcRZwJtWAScW2LM4CzqQaMKnYlsVZwJlUAyYV27I4CziTasCkYlsWZwFXoYH79+8jKSkJPj4+UBSl0p/mzZtj+PDhWL16Na5cuYIXL15Iq/rSpUuIiIhAjRo1VLkaNGiAHj16oF+/fu98QkND0b59e9SuXVt9zt/fHxkZGXj69Kn02EY3NNziysrKcOrUKaxatQoLFixAQkIC+vbtqymBYLZt2xYxMTFITk5Wn+Fzrj4zZ85EUFCQ1rZ+/fqYNm0aLl68iFevXunWxePHj3HgwAEsXrxYHW/GjBkIDAzUgBQTLSAgALGxsZp827Ztw7Vr16TG1C2kmw0MB8553NevXyM7OxvdunXTZvnChQtRUlLi/KjL38+fP8eePXtUAD/55BO1D1rI0aNHUV5e7rKNu3/SejMzM1XrEqCNHj0a58+fB+X+JV8eB85ut2PNmjVo1aqVqvSuXbti9+7dICDuXrQutunSpYvaB5UsFOxuH66ee/bsGdatWwc/Pz+130aNGmHp0qXgcv9LvzwOXHFxMWbNmoV69eqpyhk4cCBycnJ06+XmzZuYOnUq6tatq/bDibB+/Xpw+ZO9KBuXYyFbp06dsHPnTl2TSnbsyrbzOHBcdgYNGqRZyqRJk3D9+nXdcj958kTlpqZNm2p9xcXF4caNG7r7Eg3y8vLQv39/rT9+Jz+b4fIocM781qJFC3XZlLESLrkrV66Er6+vpujx48ejoKBASs+Ubf/+/Rr3cvmdOHEiCgsLpfqr6kYeBc4IfhMKKS0txaJFi9CkSRMNuMmTJ6OoqEg8outO2ej5tmzZUu2P4cuyZcvw4MEDXf18qIc9Cpwzvw0ZMgRnzpyRelcCFB0djVq1ammKrowjYWZ+owI9CpwzvzE2kuEkepUHDx5Ug2XhtjMkOH78uHRsRX4bMGCAZr10mk6fPi01qT5EI48BZyS/0aOcPn06vLy8VEWT59auXYtHjx5J6czs/OZRi3Pmt549e6pZC70pKzoy5B7hlDAFlpKSgtu3b0uBxkZm5zePAmcEv927dw9LlizRHAimymhplQ2Qzc5vHgXOkd+qV68O5gW55Llz0SrpxERGRqrLI3OUdEzIQZVNc3F8s/Obx4CjM5GVlaWlqJjl2LBhAxhE/9xFQGgJ+/btQ1RUFJh+oqs+e/ZsnD171rBsBvmNYzC5LBydKVOmSIcVP/c+nv7fI86JM78JBbl7J9CsKpw7dw7MJxp5fQz8Rn14BDguiSy/iLwia2D5+fnv1T+tgQHw4cOHMWbMGDRs2BC9evVCeno67ty589727jxAq+ay7e3trVocLW/v3r2GLMHujG/UMx4BzpHf6tSpg7lz5+r2AqngOXPmqOCRIwmkzWaTjtuEwj4GfuO7GA6cDL8JpTrfWTAdNWoURB2usqUcI/it5OJRZCyMxdjhn+G3IZ3h7+OFoC+ScfhK1VbHDQeOnORYf+vduzcOHTqEly9fOuPy3t90ZhgONGvWTF3WuHQyX8kwQeaqPL+VoyTvn9ix7hskfBmGjs1rQlGaIDx+O2x3ZSSSb2M4cM78NnLkSNX9lhHRVQF16NCh6pIp05+R/PbodBp+H8pKRQjilp3ADf3zUuYVtDaGA+fIb+QmFipv3bqlDaj3C/eIdO/eXXPd6awwb6k3A8NxnfmNdcLc3Fy9IgEoR8GOLzG4owIlMBrJ3/2Eql0oDeY4I/lNaNMo4IzgNyETUITv5o9Az3oK/MYmYvcFuZzp2/70fzPU4pz5TTY/KV6DQTl3WHGrnIgBg4ODceTIEd2c6cxvrOuxMPvw4UMxnPv3OyewNCIYPkodDJqVjlz5tKn7Yzo9aShwzvxWmfob5aRSuYXPcY+mbNWb5STHPSuM37h7TCaFZs/LRFT/gA/Gb9SNocA58hstRLb+JiYXU12Oe0JYGeDGWJlyjkf47deRSD54ucr5zVDgBL9x+x1Bq8z+EgrGrQorVqzQKgPsc9iwYVIeJWXbtWsXOnfurC258vnJt/zWZFg8tp+t4jjgzaw2zOIEv7Vu3VpVDrd2cyOsjPdHRdNzJEcKbuPSxsS1nv2YwnKd+Y21vbS0NLmtfSU5SBvXF76KgrA/peJf/xWjVNzt/7Fh15KpGBzoA6+a3vD9TQxWHcrH/crt3X13ECOXSqP4jd4f913SVRcZk3bt2mHTpk1yigbU7RKu+E1qEmj8FoSYlB9wreyNTstuISfja0yOm4Vv9p5DcWkxbBlfYYS/F/yGx2P7OWMt0zCLc+Y3mf2Trrab06PcsmWLNGhUqzO/hYeHSy257KtwTwzCuyhQ2kYgMSsfaiBQWoCslLlISt0B2+0KJOnA/OEzOjAK/CL+gt35xoYMhgBHhW/duhU8LEFB6WovX77c7a1u9OzoiJB3eIKGfTB4p1d67NgxKc9PrC2UbfPmzaDVimV3woQJ4Mkd/ddbfqvzeTzS/30XKLEhMzkRizd/j8uOm6pLbNg6/XfoHTwKyVnncfdDL5XkHyZ/N27cqJ544ZEqlm0cXXZWBAYPHox58+a5PIUjTubMnz9fPbXToUMH7cQMAevTp496GENvjEUuO3nyJFJTU9VxOT6PaInJIIBjkXbs2LFITExUn+NWdr7Te/nYgd9CYlOw/8DfsSghCat32nBXLJn6Z4NUC90Wx3oZY6vGjRtrM1goRPYuzsAxIL5w4QJ4VEvmunr1KsaNG4dq1aqpslFGTgLn828hISFo06aNNlnoULFC/74d1m/jNwXen3qjw9CvkHq4APfLqjhRaaRzIqNos7UpzJ6N8MCaUBp3RVj0JMROCEM3Hy/U/LQdgr5YjL22G3iq/9ielBp0W5zUKB9FIxf8xvcqLcKJNVEI9qsJpcUg/PnbXNwymM9cqc8CzpVWXP334DTSxlfEbyGxy3CiyGF5LLVha2QY/BUFQX9MwQ9XHZb6cjvKn5fhpcGWaAHnCiQX/9nz/vYmP+kUv6nPFiIrJhydFQVd36mG23F+29fY8O12GJ1gsYBzAZKrvwqz4yv4zTF+Ew8+yHljjU7VcFpiQhq2bD8LY8Nvg5PM4j0+vjv5baRaf3OZn7T/iMyoAQhQOiIyaT8ul1Zo4O6xlUhevxn7LhobfLN3y+LcmWXktwmh8GX9bUY6coudG5Wj6MACjOjWBiGx61T+s1/Kxl/nLMfa7Hx44kS5BZwzBq5+23/EP+IHIiQsGku//6kizfV/z9lReGQLEoYGoNmvvBEQGocNRy4bnlwWw1rACU2Y7G4BZzLAhLgWcEITJrtbwJkMMCGuBZzQhMnuFnAmA0yIawEnNGGyuwWcyQAT4lrACU2Y7G4BZzLAhLj/A85/09bvEYmbAAAAAElFTkSuQmCC;" vertex="1" parent="1">
          <mxGeometry x="527.5" y="331.75" width="60" height="37.64" as="geometry" />
        </mxCell>
      </root>
    </mxGraphModel>
  </diagram>
</mxfile>
